# xmcd
#
# Track frame offsets:
#	150
#	17309
#	34688
#	54103
#	71942
#	89618
#	115565
#	133329
#	152625
#	168384
#	183084
#
# Disc length: 2530 seconds
#
# Revision: 1
# Processed by: cddbd v1.5.2PL0 Copyright (c) Steve Scherf et al.
# Submitted via: audiograbber 1.83.01
#
DISCID=8509e00b
DTITLE=FDeluxe - gaslight
DYEAR=2011
DGENRE=funk
TTITLE0=drummers and healers
TTITLE1=over the canyon
TTITLE2=gaslight
TTITLE3=beautiful you
TTITLE4=@8
TTITLE5=the vigil
TTITLE6=leeds line
TTITLE7=lover
TTITLE8=when you go
TTITLE9=sanctified
TTITLE10=last house on the block
EXTD=
EXTT0=
EXTT1=
EXTT2=
EXTT3=
EXTT4=
EXTT5=
EXTT6=
EXTT7=
EXTT8=
EXTT9=
EXTT10=
PLAYORDER=
